<!-- Generated by IcoMoon.io -->
<svg version="1.1" xmlns="http://www.w3.org/2000/svg" width="512" height="512" viewBox="0 0 512 512">
<title></title>
<g id="icomoon-ignore">
</g>
<path fill="#000" d="M486.384 230.401h-460.768c-14.079 0-25.599 11.519-25.599 25.599s11.519 25.599 25.599 25.599h460.768c14.079 0 25.599-11.519 25.599-25.599s-11.519-25.599-25.599-25.599z"></path>
<path fill="#000" d="M25.616 128.009h460.768c14.079 0 25.599-11.519 25.599-25.599s-11.519-25.599-25.599-25.599h-460.768c-14.079 0-25.599 11.519-25.599 25.599s11.519 25.599 25.599 25.599z"></path>
<path fill="#000" d="M486.384 383.991h-460.768c-14.079 0-25.599 11.519-25.599 25.599s11.519 25.599 25.599 25.599h460.768c14.079 0 25.599-11.519 25.599-25.599s-11.519-25.599-25.599-25.599z"></path>
</svg>
